<?xml version="1.0" encoding="utf-8"?>
<!-- Generator: Adobe Illustrator 23.0.6, SVG Export Plug-In . SVG Version: 6.00 Build 0)  -->
<svg version="1.1" xmlns="http://www.w3.org/2000/svg" xmlns:xlink="http://www.w3.org/1999/xlink" x="0px" y="0px"
	 viewBox="0 0 165.97 156.7" style="enable-background:new 0 0 165.97 156.7;" xml:space="preserve">
<style type="text/css">
	.st0{enable-background:new    ;}
	.st1{fill:#DEA273;stroke:#3B2922;stroke-width:2;stroke-linejoin:round;stroke-miterlimit:10;}
	.st2{fill:#FFFFFF;stroke:#3B2922;stroke-width:2;stroke-linejoin:round;stroke-miterlimit:10;}
	.st3{fill:#333333;stroke:#3B2922;stroke-width:2;stroke-linejoin:round;stroke-miterlimit:10;}
	.st4{clip-path:url(#SVGID_1_);}
	.st5{fill:#3B2922;stroke:#3B2922;stroke-width:2;stroke-linejoin:round;stroke-miterlimit:10;}
	.st6{fill:#C2C2C2;stroke:#3B2922;stroke-width:2;stroke-linejoin:round;stroke-miterlimit:10;}
	.st7{clip-path:url(#SVGID_2_);}
</style>
<g id="BACKGROUND">
</g>
<g id="OBJECTS">
	<g>
		<g class="st0">
			<path class="st1" d="M20.43,19.88L88.05,7.51C88.03,7.5,88,7.49,87.97,7.48c-0.03-0.01-0.06-0.02-0.09-0.02
				c-0.03-0.01-0.06-0.01-0.09-0.02c-0.03-0.01-0.07-0.01-0.1-0.01c-0.01,0-0.01,0-0.02,0c0,0-0.01,0-0.01,0
				c-0.03,0-0.05,0-0.08-0.01c-0.04,0-0.08,0-0.11,0c-0.04,0-0.09,0.01-0.13,0.01c-0.02,0-0.03,0.01-0.05,0.01L19.66,19.81
				c0.12-0.02,0.25-0.03,0.37-0.02c0,0,0.01,0,0.01,0C20.17,19.8,20.3,19.83,20.43,19.88z"/>
			<g>
				<polygon class="st2" points="21.32,19.5 88.22,7.3 165.66,35.76 98.04,48.13 				"/>
				<g class="st0">
					<g>
						<path class="st3" d="M94.3,17.8c-2.99-1.09-7.43-1.6-9.92-1.14c-2.49,0.45-2.09,1.7,0.9,2.79c2.99,1.09,7.43,1.6,9.92,1.14
							C97.69,20.14,97.29,18.89,94.3,17.8"/>
						<path class="st3" d="M127.84,30.01c-2.99-1.09-7.43-1.6-9.92-1.14c-2.49,0.45-2.09,1.7,0.9,2.79c2.99,1.09,7.43,1.6,9.92,1.14
							C131.23,32.35,130.83,31.1,127.84,30.01"/>
						<path class="st3" d="M65,23.16c-2.99-1.09-7.43-1.6-9.92-1.14c-2.49,0.45-2.09,1.71,0.9,2.79c2.99,1.09,7.43,1.6,9.92,1.14
							C68.39,25.5,67.99,24.25,65,23.16"/>
						<path class="st3" d="M98.54,35.37c-2.99-1.09-7.43-1.6-9.92-1.14c-2.49,0.45-2.09,1.7,0.9,2.79c2.99,1.09,7.43,1.6,9.92,1.14
							C101.93,37.7,101.53,36.45,98.54,35.37"/>
					</g>
				</g>
			</g>
			<g>
				<g class="st0">
					<defs>
						<polygon id="SVGID_9_" class="st0" points="97.61,48.13 165.97,36.43 149.74,133.79 82.33,146.12 						"/>
					</defs>
					<use xlink:href="#SVGID_9_"  style="overflow:visible;fill:#FFFFFF;"/>
					<clipPath id="SVGID_1_">
						<use xlink:href="#SVGID_9_"  style="overflow:visible;"/>
					</clipPath>
					<g class="st4">
						<path class="st5" d="M146.64,64.67c0.56-3.75-1-6.42-3.49-5.96c-2.49,0.45-4.97,3.86-5.53,7.61c-0.56,3.75,1,6.42,3.49,5.96
							C143.59,71.82,146.07,68.42,146.64,64.67"/>
						<path class="st5" d="M140.3,106.75c0.56-3.75-1-6.42-3.49-5.96c-2.49,0.45-4.96,3.86-5.53,7.61c-0.56,3.75,1,6.42,3.49,5.96
							C137.26,113.91,139.74,110.5,140.3,106.75"/>
						<path class="st5" d="M117.33,70.03c0.56-3.75-1-6.42-3.49-5.96c-2.49,0.45-4.96,3.86-5.53,7.61c-0.56,3.75,1,6.42,3.49,5.96
							C114.29,77.18,116.76,73.78,117.33,70.03"/>
						<path class="st5" d="M110.99,112.11c0.56-3.75-1-6.42-3.49-5.96c-2.49,0.45-4.96,3.86-5.53,7.61c-0.56,3.75,1,6.42,3.49,5.96
							C107.96,119.27,110.43,115.86,110.99,112.11"/>
						<path class="st5" d="M128.14,88.52c0.56-3.75-1-6.42-3.49-5.97c-2.49,0.46-4.97,3.87-5.53,7.62c-0.56,3.74,1,6.42,3.49,5.96
							C125.1,95.67,127.58,92.26,128.14,88.52"/>
					</g>
					
						<use xlink:href="#SVGID_9_"  style="overflow:visible;fill:none;stroke:#3B2922;stroke-width:2;stroke-linejoin:round;stroke-miterlimit:10;"/>
				</g>
			</g>
			<g>
				<path class="st6" d="M95.77,47.3c1,0.37,1.67,1.68,1.48,2.94l-14.23,94.54c-0.19,1.26-1.16,1.99-2.16,1.62L5.51,118.98
					c-1-0.36-1.66-1.69-1.47-2.95L18.27,21.5c0.19-1.26,1.16-1.98,2.16-1.62L95.77,47.3z"/>
				<g class="st0">
					<defs>
						<path id="SVGID_11_" class="st0" d="M95.77,47.3c1,0.37,1.67,1.68,1.48,2.94l-14.23,94.54c-0.19,1.26-1.16,1.99-2.16,1.62
							L5.51,118.98c-1-0.36-1.66-1.69-1.47-2.95L18.27,21.5c0.19-1.26,1.16-1.98,2.16-1.62L95.77,47.3z"/>
					</defs>
					<clipPath id="SVGID_2_">
						<use xlink:href="#SVGID_11_"  style="overflow:visible;"/>
					</clipPath>
					<g class="st7">
						<path class="st3" d="M38.22,48.19c-2.99-1.09-5.87,1.07-6.43,4.82c-0.56,3.74,1.4,7.67,4.39,8.76
							c2.99,1.09,5.87-1.07,6.43-4.82C43.17,53.2,41.2,49.28,38.22,48.19"/>
						<path class="st3" d="M50.97,77.17c-2.98-1.09-5.87,1.07-6.43,4.82c-0.56,3.75,1.4,7.67,4.39,8.76
							c2.99,1.09,5.87-1.07,6.44-4.82C55.93,82.19,53.96,78.26,50.97,77.17"/>
						<path class="st3" d="M65.11,104.52c-2.99-1.09-5.87,1.07-6.43,4.82c-0.56,3.74,1.4,7.67,4.39,8.76
							c2.99,1.09,5.87-1.07,6.43-4.82C70.07,109.53,68.1,105.61,65.11,104.52"/>
					</g>
					
						<use xlink:href="#SVGID_11_"  style="overflow:visible;fill:none;stroke:#3B2922;stroke-width:2;stroke-linejoin:round;stroke-miterlimit:10;"/>
				</g>
			</g>
		</g>
	</g>
</g>
</svg>
